
<svg xmlns="http://www.w3.org/2000/svg" xmlns:xlink="http://www.w3.org/1999/xlink" x="0px" y="0px"  viewBox="0 0 32 32" xml:space="preserve" width="23px" height="23px">
<style>
	path{
		fill: url(#svg-gradient) #d90e90;
	}
</style>
	<path d="M29.334 3H25V1a1 1 0 1 0-2 0v2h-6V1a1 1 0 1 0-2 0v2H9V1a1 1 0 1 0-2 0v2H2.667A2.666 2.666 0 0 0 0 5.666v23.667A2.667 2.667 0 0 0 2.667 32h26.667A2.666 2.666 0 0 0 32 29.333V5.666A2.665 2.665 0 0 0 29.334 3zM30 29.333a.667.667 0 0 1-.666.667H2.667A.667.667 0 0 1 2 29.333V5.666C2 5.299 2.299 5 2.667 5H7v2a1 1 0 1 0 2 0V5h6v2a1 1 0 1 0 2 0V5h6v2a1 1 0 1 0 2 0V5h4.334c.367 0 .666.299.666.666v23.667z"></path><path d="M7 12h4v3H7zM7 17h4v3H7zM7 22h4v3H7zM14 22h4v3h-4zM14 17h4v3h-4zM14 12h4v3h-4zM21 22h4v3h-4zM21 17h4v3h-4zM21 12h4v3h-4z"></path>
	<linearGradient id="svg-gradient" x1="0%" y1="100%" x2="100%" y2="0%"><stop offset="0%" style="stop-color:rgb(130,46,168);stop-opacity:1"></stop><stop offset="100%" style="stop-color:rgb(217,14,144);stop-opacity:1"></stop></linearGradient>
</svg>
