<svg width="60px" height="60px" xmlns="http://www.w3.org/2000/svg" xmlns:xlink="http://www.w3.org/1999/xlink" viewBox="0 0 480 480" fill="#f09922">
<path d="M479.823 233.653c-4.418-95.717-85.594-169.73-181.311-165.311-89.531 4.133-161.179 75.78-165.311 165.311h-24.568l-23.2-37.416a8 8 0 0 0-6.8-3.784H8.048a8 8 0 0 0-6.8 12.216l23.096 37.232-23.096 37.24a8 8 0 0 0 6.8 12.216h70.584a8 8 0 0 0 6.8-3.784l23.512-37.92H133.2c4.418 95.717 85.594 169.73 181.311 165.311s169.73-85.593 165.312-181.311zM74.176 275.357H22.4l15.632-25.2h51.752l-15.608 25.2zm-36.12-41.704l-15.656-25.2h51.776l15.632 25.2H38.056zm268.858 165.512c-83.96.109-153.246-65.66-157.506-149.512h32.68c4.418 68.783 63.76 120.962 132.543 116.543s120.962-63.76 116.543-132.543-63.76-120.962-132.543-116.543c-62.623 4.023-112.521 53.92-116.543 116.543h-32.68c4.284-83.676 73.31-149.363 157.096-149.496 86.987-.113 157.596 70.312 157.709 157.299.113 86.987-70.312 157.596-157.299 157.709zm-.418-165.512h-8.192c4.418-4.547 11.686-4.652 16.233-.234s4.652 11.686.234 16.234-11.686 4.652-16.234.233a12.796 12.796 0 0 1-.233-.233h8.192a8 8 0 0 0 0-16zm8.169 34.282c14.515-4.418 22.7-19.767 18.281-34.281-4.418-14.515-19.767-22.7-34.281-18.281a27.47 27.47 0 0 0-18.281 18.281h-33.44c4.418-32.921 34.688-56.028 67.61-51.61s56.028 34.688 51.61 67.61-34.688 56.028-67.61 51.61c-26.868-3.606-48.004-24.741-51.61-51.61h33.44c4.418 14.514 19.767 22.699 34.281 18.281zm-.158 49.441c41.82-4.418 72.141-41.902 67.723-83.723-4.418-41.82-41.902-72.141-83.723-67.723-35.722 3.774-63.949 32-67.723 67.723h-32.696c4.418-59.926 56.58-104.924 116.505-100.505s104.924 56.58 100.505 116.505-56.58 104.924-116.505 100.506c-53.78-3.965-96.54-46.726-100.505-100.506h32.696c4.418 41.821 41.902 72.141 83.723 67.723zM80 .005h64v16H80zM144 56.005h64v16h-64zM48 .005h16v16H48z"></path><path d="M32 152.005h64v16H32zM0 152.005h16v16H0zM64 328.005h48v16H64zM32 328.005h16v16H32zM160 400.005h16v16h-16zM32 464.005h64v16H32zM0 464.005h16v16H0z"></path>
</svg>